# xmcd
#
# Track frame offsets: 
#        150
#        13242
#        22585
#        35425
#        47087
#        56465
#        66822
#        75992
#        89650
#        99060
#        110852
#        123505
#        135882
#        145677
#        154055
#        165880
#        177170
#        186972
#        196945
#        207875
#        218787
#        228700
#        237217
#        249095
#        259890
#        266880
#
# Disc length: 3693 seconds
#
# Revision: 3
# Processed by: cddbd v1.5.2PL0 Copyright (c) Steve Scherf et al.
# Submitted via: ExactAudioCopy v0.95b2
#
DISCID=590e6b1a
DTITLE=Various Artist - Creole Kings of New Orleans
DYEAR=1900
DGENRE=R&B
TTITLE0=Joe Liggins and The Honeydrippers - 01 - Goin Back to New Orlean
TTITLE0=s
TTITLE1=Percy Mayfield - 02 - Louisiana
TTITLE2=Percy Mayfield - 03 - Rivers Invitation
TTITLE3=Lloyd Price - 04 - Lawdy Miss Clawdy
TTITLE4=Lloyd Price - 05 - Where You At
TTITLE5=Lloyd Price - 06 - Frog Legs
TTITLE6=The Royal Kings - 07 - Teachin And Preachin
TTITLE7=Guitar Slim - 08 - The Things That I Used To Do
TTITLE8=The Kings - 09 - Til I Say Well Done
TTITLE9=Clifton Chenier - 10 - Eh Petite Fille
TTITLE10=Alberta Hall - 11 - Oh How I Need Your Love
TTITLE11=Leo Price - 12 - Send Me Some Lovin
TTITLE12=Ernie K-Doe - 13 - Do Baby Do
TTITLE13=Big Boy Myles - 14 - Whos Been Foolin You
TTITLE14=Lil Milllet And His Creoles - 15 - Rich Woman
TTITLE15=Lloyd Lambert - 16 - Whistlin Joe
TTITLE16=Professor Longhair - 17 - No Buts, No Maybes
TTITLE17=Professor Longhair - 18 - Baby Let Me Hold Your Hand
TTITLE18=Roy Montrell - 19 - Every Time I Hear That Mellow Saxophone
TTITLE19=Edgar Blanchard - 20 - Bop Sit In Blues
TTITLE20=Big Boy Myles - 21 - Just To Hold My Hand
TTITLE21=Jerry Byrne - 22 - Lights Out
TTITLE22=Art Neville - 23 - Cha Dooky Doo
TTITLE23=Arl Neville 24 - I'm A Fool To Care
TTITLE24=Larry Williams - 25 - Jockamo
TTITLE25=Larry Williams - 26 - Bad Boy
EXTD=
EXTT0=
EXTT1=
EXTT2=
EXTT3=
EXTT4=
EXTT5=
EXTT6=
EXTT7=
EXTT8=
EXTT9=
EXTT10=
EXTT11=
EXTT12=
EXTT13=
EXTT14=
EXTT15=
EXTT16=
EXTT17=
EXTT18=
EXTT19=
EXTT20=
EXTT21=
EXTT22=
EXTT23=
EXTT24=
EXTT25=
PLAYORDER=
